<?xml version="1.0" encoding="iso-8859-1"?>
<!-- Generator: Adobe Illustrator 19.0.0, SVG Export Plug-In . SVG Version: 6.00 Build 0)  -->
<svg version="1.1" id="Layer_1" xmlns="http://www.w3.org/2000/svg" xmlns:xlink="http://www.w3.org/1999/xlink" x="0px" y="0px"
	 viewBox="0 0 512 512" style="enable-background:new 0 0 512 512;" xml:space="preserve">
<g>
	<g>
		<path d="M512,291.388c0-141.386-114.614-256-256-256S0,150.002,0,291.388l149.365,140.579
			c-8.757,12.729-13.961,28.083-14.208,44.645h241.684c-0.247-16.56-5.45-31.914-14.208-44.645L512,291.388z M45.994,272.638
			c1.899-21.694,7.091-42.704,15.327-62.446l97.196,168.349L45.994,272.638z M87.32,164.876
			c5.951-7.901,12.487-15.444,19.605-22.561c14.699-14.7,31.19-26.952,48.973-36.572l52.159,268.255L87.32,164.876z M198.56,88.451
			c18.456-5.194,37.74-7.886,57.44-7.886s38.984,2.693,57.442,7.888L256,383.863L198.56,88.451z M356.104,105.743
			c17.783,9.621,34.274,21.871,48.971,36.57c7.118,7.118,13.651,14.66,19.604,22.56L303.943,373.995L356.104,105.743z
			 M450.679,210.191c8.236,19.744,13.426,40.754,15.327,62.447L353.482,378.543L450.679,210.191z"/>
	</g>
</g>
<g>
</g>
<g>
</g>
<g>
</g>
<g>
</g>
<g>
</g>
<g>
</g>
<g>
</g>
<g>
</g>
<g>
</g>
<g>
</g>
<g>
</g>
<g>
</g>
<g>
</g>
<g>
</g>
<g>
</g>
</svg>
